<?xml version="1.0" encoding="UTF-8" standalone="no"?>
<!DOCTYPE svg PUBLIC "-//W3C//DTD SVG 1.1//EN"
 "http://www.w3.org/Graphics/SVG/1.1/DTD/svg11.dtd">
<!-- Generated by graphviz version 2.40.1 (20161225.0304)
 -->
<!-- Title: G Pages: 1 -->
<svg width="420pt" height="366pt"
 viewBox="0.00 0.00 420.00 366.00" xmlns="http://www.w3.org/2000/svg" xmlns:xlink="http://www.w3.org/1999/xlink">
<g id="graph0" class="graph" transform="scale(1 1) rotate(0) translate(4 362)">
<title>G</title>
<polygon fill="#ffffff" stroke="transparent" points="-4,4 -4,-362 416,-362 416,4 -4,4"/>
<!-- constants -->
<g id="node1" class="node">
<title>constants</title>
<ellipse fill="#c24747" stroke="#000000" cx="322" cy="-251" rx="90" ry="90"/>
<text text-anchor="middle" x="322" y="-248" font-family="Helvetica,sans-Serif" font-size="10.00" fill="#ffffff">constants</text>
</g>
<!-- one -->
<g id="node2" class="node">
<title>one</title>
<ellipse fill="#4971ac" stroke="#000000" cx="267" cy="-90" rx="18.7418" ry="18"/>
<text text-anchor="middle" x="267" y="-87" font-family="Helvetica,sans-Serif" font-size="10.00" fill="#ffffff">one</text>
</g>
<!-- constants&#45;&gt;one -->
<g id="edge1" class="edge">
<title>constants&#45;&gt;one</title>
<path fill="none" stroke="#000000" d="M292.8895,-165.7856C286.8117,-147.9942 280.8391,-130.511 276.1648,-116.828"/>
<polygon fill="#000000" stroke="#000000" points="279.408,-115.4947 272.8632,-107.1631 272.7839,-117.7576 279.408,-115.4947"/>
</g>
<!-- two -->
<g id="node5" class="node">
<title>two</title>
<ellipse fill="#9e4cb3" stroke="#000000" cx="322" cy="-90" rx="18.4468" ry="18"/>
<text text-anchor="middle" x="322" y="-87" font-family="Helvetica,sans-Serif" font-size="10.00" fill="#ffffff">two</text>
</g>
<!-- constants&#45;&gt;two -->
<g id="edge5" class="edge">
<title>constants&#45;&gt;two</title>
<path fill="none" stroke="#000000" d="M322,-160.6169C322,-145.3605 322,-130.5849 322,-118.5269"/>
<polygon fill="#000000" stroke="#000000" points="325.5001,-118.2814 322,-108.2814 318.5001,-118.2815 325.5001,-118.2814"/>
</g>
<!-- main -->
<g id="node4" class="node">
<title>main</title>
<ellipse fill="#49ac71" stroke="#000000" cx="294" cy="-18" rx="21.5059" ry="18"/>
<text text-anchor="middle" x="294" y="-15" font-family="Helvetica,sans-Serif" font-size="10.00" fill="#000000">main</text>
</g>
<!-- one&#45;&gt;main -->
<g id="edge3" class="edge">
<title>one&#45;&gt;main</title>
<path fill="none" stroke="#000000" d="M273.3986,-72.937C276.5467,-64.5421 280.415,-54.2266 283.9462,-44.81"/>
<polygon fill="#000000" stroke="#000000" points="287.2256,-46.0329 287.4597,-35.4407 280.6713,-43.575 287.2256,-46.0329"/>
</g>
<!-- funcs -->
<g id="node3" class="node">
<title>funcs</title>
<ellipse fill="#a2b653" stroke="#000000" cx="107" cy="-251" rx="107" ry="107"/>
<text text-anchor="middle" x="107" y="-248" font-family="Helvetica,sans-Serif" font-size="10.00" fill="#000000">funcs</text>
</g>
<!-- funcs&#45;&gt;one -->
<g id="edge2" class="edge">
<title>funcs&#45;&gt;one</title>
<path fill="none" stroke="#000000" d="M182.783,-174.7434C206.2446,-151.1351 230.1912,-127.0388 246.5213,-110.6066"/>
<polygon fill="#000000" stroke="#000000" points="249.3242,-112.7516 253.8906,-103.1913 244.359,-107.8173 249.3242,-112.7516"/>
</g>
<!-- two&#45;&gt;main -->
<g id="edge4" class="edge">
<title>two&#45;&gt;main</title>
<path fill="none" stroke="#000000" d="M315.3644,-72.937C312.0997,-64.5421 308.0881,-54.2266 304.4261,-44.81"/>
<polygon fill="#000000" stroke="#000000" points="307.669,-43.4921 300.7825,-35.4407 301.145,-46.0293 307.669,-43.4921"/>
</g>
</g>
</svg>
